<svg width="864" height="876" viewBox="0 0 864 876" fill="none" xmlns="http://www.w3.org/2000/svg">
<path d="M797.836 351.946L657.161 745.438C636.73 802.602 574.524 831.9 518.223 810.876L130.642 666.191C74.3648 645.164 45.2684 581.785 65.7313 524.616L206.406 131.125C226.845 73.9596 289.051 44.6618 345.344 65.6867L732.895 210.384C789.196 231.408 818.276 294.789 797.836 351.946Z" fill="#41ABFF" fill-opacity="0.5"/>
<path d="M730.573 367.811L615.747 689.024C599.091 735.679 548.29 759.595 502.366 742.452L185.979 624.325C140.029 607.162 116.295 555.424 132.975 508.774L247.791 187.546C264.47 140.888 315.248 116.975 361.197 134.13L677.56 252.261C723.519 269.423 747.252 321.153 730.573 367.811Z" fill="#006BFF" fill-opacity="0.5"/>
<path d="M663.299 383.681L574.325 632.576C561.398 668.727 522.058 687.263 486.446 673.93L241.311 582.433C205.703 569.131 187.316 529.046 200.243 492.894L289.21 244C302.136 207.841 341.476 189.313 377.088 202.646L622.224 294.143C657.831 307.437 676.25 347.527 663.299 383.681Z" fill="#445066" fill-opacity="0.5"/>
<path d="M596.029 399.548L532.906 576.125C523.74 601.776 495.828 614.919 470.565 605.495L296.655 540.552C271.389 531.112 258.343 502.679 267.504 476.996L330.628 300.419C339.801 274.767 367.713 261.624 392.969 271.049L566.89 336.022C592.147 345.455 605.163 373.9 596.029 399.548Z" fill="#001736" fill-opacity="0.5"/>
</svg>
