<svg width="465" height="466" viewBox="0 0 465 466" fill="none" xmlns="http://www.w3.org/2000/svg">
<path d="M363.092 323.953L199.453 390.468C175.681 400.132 148.924 388.781 139.69 365.115L76.1039 202.208C66.877 178.549 78.6545 151.525 102.436 141.869L266.075 75.3544C289.849 65.692 316.606 77.0431 325.838 100.707L389.412 263.607C398.646 287.273 386.864 314.293 363.092 323.953Z" fill="#41ABFF" fill-opacity="0.5"/>
<path d="M339.144 307.224L205.565 361.524C186.169 369.418 164.321 360.145 156.787 340.843L104.887 207.855C97.3513 188.538 106.97 166.484 126.371 158.599L259.952 104.292C279.355 96.4043 301.196 105.67 308.734 124.984L360.626 257.966C368.164 277.284 358.547 299.337 339.144 307.224Z" fill="#006BFF" fill-opacity="0.5"/>
<path d="M315.191 290.493L211.686 332.568C196.651 338.678 179.727 331.502 173.897 316.522L133.676 213.491C127.838 198.522 135.291 181.435 150.326 175.325L253.829 133.248C268.866 127.136 285.787 134.315 291.617 149.294L331.838 252.325C337.679 267.291 330.233 284.39 315.191 290.493Z" fill="#445066" fill-opacity="0.5"/>
<path d="M291.24 273.762L217.809 303.611C207.143 307.949 195.138 302.855 190.991 292.238L162.466 219.135C158.324 208.513 163.609 196.392 174.284 192.044L247.716 162.195C258.384 157.859 270.389 162.953 274.534 173.568L303.052 246.683C307.194 257.3 301.896 269.416 291.24 273.762Z" fill="#001736" fill-opacity="0.5"/>
</svg>
