<svg width="979" height="592" viewBox="0 0 979 592" fill="none" xmlns="http://www.w3.org/2000/svg">
<g opacity="0.53">
<path d="M180.87 191.387L312.516 191.387L376.502 45.4524L246.08 45.4524L180.87 191.387Z" fill="#41ABFF"/>
<path d="M312.516 191.387L442.946 487.387L312.516 487.387L180.87 191.387L312.516 191.387Z" fill="#006BFF"/>
<path d="M376.502 45.4524L508.348 339.82L442.946 487.387L312.516 191.387L376.502 45.4524Z" fill="#001736"/>
<path d="M391.69 296L523.345 296L587.322 441.935L456.901 441.935L391.69 296Z" fill="#006BFF"/>
<path d="M523.345 296.001L653.766 0L523.345 -1.55526e-06L391.69 296.001L523.345 296.001Z" fill="#41ABFF"/>
<path d="M587.322 441.935L718.977 148.005L653.766 -7.7763e-07L523.345 296.001L587.322 441.935Z" fill="#2E2B2A"/>
<path d="M519.426 296L651.081 296L715.058 441.935L584.637 441.935L519.426 296Z" fill="#41ABFF"/>
<path d="M651.081 296.001L781.503 0L651.081 -1.55526e-06L519.426 296.001L651.081 296.001Z" fill="#006BFF"/>
<path d="M715.058 441.935L846.713 148.005L781.503 -7.77629e-07L651.081 296.001L715.058 441.935Z" fill="#001736"/>
<path d="M650.777 295.942L782.433 295.942L846.409 149.998L715.988 149.998L650.777 295.942Z" fill="#41ABFF"/>
<path d="M782.433 295.942L912.854 591.943L782.433 591.943L650.777 295.942L782.433 295.942Z" fill="#006BFF"/>
<path d="M846.409 149.998L978.064 443.938L912.854 591.943L782.432 295.942L846.409 149.998Z" fill="#001736"/>
<path d="M-3.22579e-05 283.653L131.655 283.653L195.641 137.709L65.2107 137.709L-3.22579e-05 283.653Z" fill="#41ABFF"/>
<path d="M131.655 283.653L262.077 579.654L131.655 579.654L0.000213623 283.653L131.655 283.653Z" fill="#006BFF"/>
<path d="M195.641 137.709L327.487 432.086L262.077 579.653L131.655 283.653L195.641 137.709Z" fill="#001736"/>
</g>
</svg>
