<svg width="357" height="126" viewBox="0 0 357 126" fill="none" xmlns="http://www.w3.org/2000/svg">
<path d="M0.0669556 75.3767V46.1389H43.5484C47.2755 46.1389 49.8692 45.1341 51.3296 43.1245C52.79 41.1149 53.5241 39.1623 53.5317 37.2667C53.5317 33.8059 52.3185 31.6026 49.892 30.6567C47.8286 29.7867 45.6217 29.3056 43.3829 29.2378H0.0669556V0H52.3508C58.022 0.0366366 63.6608 0.85936 69.1056 2.44458C74.8559 4.07808 79.5091 7.51221 83.065 12.747C86.621 17.9818 88.397 24.0296 88.3932 30.8903C88.3932 36.0681 87.0393 41.8082 84.3315 48.1105C81.6236 54.4127 76.3791 59.1936 68.5978 62.453C72.4314 63.3609 76.6605 65.6744 81.2852 69.3935C85.9098 73.1126 88.2221 80.1063 88.2221 90.3745V121.681H54.2105V93.1211C54.2105 86.249 52.9136 81.5726 50.3199 79.092C47.7261 76.6113 42.6489 75.3729 35.0883 75.3767H0.0669556Z" fill="white"/>
<path d="M273.694 109.498C273.665 108.818 273.806 108.142 274.105 107.531C274.404 106.92 274.851 106.393 275.406 105.999C276.743 105.109 278.33 104.67 279.935 104.745H287.922V106.517H284.767V106.603C284.903 106.68 285.032 106.768 285.155 106.865C285.411 107.137 285.624 107.447 285.788 107.783C286.057 108.312 286.19 108.899 286.176 109.492C286.2 110.159 286.056 110.822 285.757 111.42C285.458 112.017 285.014 112.53 284.465 112.911C283.129 113.789 281.55 114.224 279.952 114.153C277.355 114.153 276.058 114.628 276.062 115.578C276.062 116.056 276.427 116.421 277.168 116.672C278.07 116.944 279.01 117.071 279.952 117.048C281.739 116.969 283.514 117.376 285.086 118.227C286.391 119.014 287.045 120.057 287.049 121.356C287.045 122.007 286.861 122.645 286.518 123.199C286.175 123.753 285.685 124.201 285.104 124.496C283.5 125.258 281.746 125.654 279.969 125.654C278.193 125.654 276.439 125.258 274.835 124.496C274.25 124.202 273.758 123.752 273.414 123.196C273.071 122.639 272.889 121.998 272.89 121.344C272.892 120.869 272.995 120.399 273.192 119.965C273.369 119.551 273.636 119.182 273.974 118.883C274.458 118.414 275.017 118.028 275.628 117.743L275.959 117.629V117.572L275.816 117.532L275.645 117.481L275.463 117.413C275.379 117.376 275.299 117.332 275.223 117.282C275.139 117.22 275.059 117.153 274.983 117.082C274.886 116.991 274.784 116.894 274.675 116.774C274.351 116.444 274.17 116 274.17 115.538C274.17 115.075 274.351 114.632 274.675 114.301C274.958 113.98 275.314 113.732 275.714 113.578L276.221 113.378V113.321C275.912 113.197 275.62 113.032 275.354 112.831C275.066 112.635 274.808 112.397 274.59 112.125C274.31 111.786 274.094 111.4 273.951 110.985C273.781 110.508 273.694 110.004 273.694 109.498ZM285.161 121.384C285.161 120.643 284.681 120.034 283.734 119.555C281.297 118.613 278.596 118.613 276.159 119.555C275.229 120.022 274.761 120.632 274.761 121.384C274.761 122.136 275.234 122.792 276.176 123.242C278.612 124.158 281.298 124.158 283.734 123.242C284.681 122.763 285.161 122.154 285.161 121.384ZM283.096 111.697C283.476 111.477 283.789 111.156 284.001 110.77C284.212 110.385 284.313 109.948 284.294 109.509C284.311 109.068 284.209 108.63 283.998 108.242C283.787 107.854 283.475 107.53 283.096 107.304C282.142 106.755 281.051 106.49 279.952 106.54C278.844 106.489 277.744 106.754 276.78 107.304C276.4 107.532 276.088 107.858 275.877 108.248C275.666 108.638 275.564 109.078 275.582 109.52C275.567 109.951 275.667 110.378 275.873 110.757C276.078 111.136 276.382 111.453 276.752 111.674C277.724 112.229 278.835 112.492 279.952 112.432C281.05 112.475 282.138 112.213 283.096 111.674V111.697Z" fill="white"/>
<path d="M298.53 104.746C299.068 104.746 299.606 104.803 300.133 104.917L300.332 105.002V106.962C299.676 106.753 298.99 106.651 298.301 106.66C297.563 106.621 296.826 106.755 296.15 107.052C295.473 107.349 294.875 107.8 294.405 108.37C293.455 109.557 292.96 111.044 293.007 112.564V119.498H291.176V105.036H293.007V107.959H293.121C293.319 107.553 293.562 107.171 293.846 106.82C294.126 106.449 294.456 106.119 294.827 105.84C295.304 105.506 295.829 105.249 296.385 105.076C297.075 104.844 297.801 104.733 298.53 104.746Z" fill="white"/>
<path d="M304.588 117.698C303.183 116.238 302.398 114.292 302.398 112.267C302.398 110.243 303.183 108.297 304.588 106.837C306.123 105.489 308.097 104.746 310.141 104.746C312.185 104.746 314.159 105.489 315.695 106.837C317.091 108.301 317.869 110.246 317.869 112.267C317.869 114.289 317.091 116.234 315.695 117.698C314.158 119.042 312.184 119.783 310.141 119.783C308.098 119.783 306.125 119.042 304.588 117.698ZM310.138 118.028C311.43 117.977 312.664 117.483 313.634 116.631C314.603 115.778 315.25 114.618 315.466 113.346C315.681 112.073 315.451 110.765 314.816 109.642C314.18 108.518 313.177 107.647 311.974 107.175C310.772 106.702 309.443 106.657 308.212 107.048C306.98 107.438 305.92 108.239 305.21 109.317C304.5 110.395 304.182 111.685 304.311 112.969C304.44 114.253 305.007 115.454 305.917 116.37C306.467 116.924 307.127 117.357 307.853 117.642C308.58 117.928 309.358 118.059 310.138 118.028Z" fill="white"/>
<path d="M322.295 105.036H324.126V112.769C324.126 114.592 324.597 115.922 325.541 116.757C326.557 117.651 327.879 118.116 329.232 118.057C329.938 118.101 330.645 117.99 331.304 117.731C331.963 117.472 332.556 117.072 333.042 116.558C333.949 115.476 334.417 114.093 334.354 112.683V105.036H336.186V119.498H334.354V117.219H334.223C334.046 117.554 333.805 117.852 333.516 118.097C333.208 118.399 332.865 118.665 332.495 118.889C331.987 119.18 331.439 119.395 330.869 119.527C330.183 119.699 329.477 119.785 328.77 119.783C327.065 119.84 325.403 119.243 324.126 118.114C322.905 117.008 322.295 115.35 322.295 113.128V105.036Z" fill="white"/>
<path d="M348.999 104.746C349.999 104.717 350.996 104.888 351.929 105.249C352.863 105.61 353.715 106.154 354.435 106.848C355.812 108.315 356.578 110.251 356.578 112.262C356.578 114.273 355.812 116.208 354.435 117.675C353.715 118.371 352.864 118.916 351.93 119.278C350.996 119.64 350 119.812 348.999 119.783C346.477 119.825 344.534 118.932 343.168 117.105L343.111 117.02H342.997V125.402H341.166V105.036H342.997V107.532H343.111L343.168 107.43C343.846 106.54 344.732 105.831 345.749 105.363C346.765 104.895 347.881 104.683 348.999 104.746ZM353.077 116.37C353.906 115.559 354.469 114.517 354.695 113.381C354.92 112.245 354.796 111.067 354.34 110.002C353.884 108.937 353.116 108.034 352.137 107.413C351.159 106.791 350.015 106.479 348.856 106.518C348.082 106.489 347.31 106.615 346.586 106.889C345.862 107.163 345.2 107.58 344.64 108.113C343.584 109.238 342.996 110.722 342.996 112.265C342.996 113.807 343.584 115.291 344.64 116.416C345.196 116.957 345.857 117.379 346.582 117.656C347.306 117.934 348.08 118.06 348.856 118.028C349.64 118.063 350.423 117.933 351.154 117.648C351.885 117.362 352.548 116.927 353.1 116.37H353.077Z" fill="white"/>
<path d="M287.832 0.826172H202.221V30.064H287.832V0.826172Z" fill="white"/>
<path d="M243.015 119.025C237.213 122.068 231.246 122.165 227.646 121.875C227.623 93.5732 227.599 65.2718 227.572 36.9704L262.137 36.8735V82.038C262.137 88.3175 261.546 93.5371 260.363 97.6968C259.182 101.853 257.197 105.739 254.521 109.133C248.223 117.174 245.365 117.789 243.015 119.025Z" fill="white"/>
<path d="M5.70473 27.0552H0V50.0819H5.70473V27.0552Z" fill="white"/>
<path d="M160.297 121.681H105.138V92.443H147.923C149.387 92.443 151.278 91.9701 153.594 91.0241C155.91 90.0782 157.066 87.8179 157.062 84.2432C157.062 82.3438 156.328 80.4196 154.86 78.4708C153.392 76.522 151.137 75.5457 148.094 75.5419H105.138V46.3041H147.775C150.02 46.1831 152.239 45.7576 154.37 45.0391C157.188 44.1882 158.599 41.85 158.603 38.0246C158.639 36.8276 158.407 35.6375 157.925 34.5413C157.442 33.4451 156.721 32.4703 155.813 31.6881C153.946 30.0546 151.378 29.2378 148.112 29.2378H105.138V0H162.664C169.658 0 175.608 1.46637 180.514 4.39908C185.421 7.33523 189.271 11.7475 191.513 17.0036C193.861 22.1315 195.099 27.6964 195.147 33.3349C195.147 39.5422 193.626 44.929 190.583 49.4952C187.531 54.0729 183.082 57.5444 177.896 59.3931C186.019 64.1226 190.842 69.441 192.363 75.3482C193.884 81.2554 194.645 85.8406 194.645 89.1038C194.645 98.335 191.412 106.071 184.947 112.313C178.482 118.554 170.265 121.677 160.297 121.681Z" fill="white"/>
<path d="M110.843 26.8274H105.138V49.8541H110.843V26.8274Z" fill="white"/>
<path d="M110.843 74.9551H105.138V97.9818H110.843V74.9551Z" fill="white"/>
</svg>
